<svg width="31" height="29" viewBox="0 0 31 29" fill="none" xmlns="http://www.w3.org/2000/svg">
<path d="M19.1961 8.7635C18.7192 7.3029 17.199 5.33558 15.9173 4.02405L15.8874 3.99423L14.6653 2.9808C14.9932 2.38461 15.7384 1.10289 15.9471 0.625964C16.0067 0.506736 16.0067 0.327889 15.9173 0.208656C15.8278 0.0894234 15.7086 0 15.5596 0H10.3432C10.1942 0 10.0749 0.0894234 9.98548 0.208656C9.89606 0.327889 9.89606 0.476926 9.95571 0.625964C10.1643 1.07308 10.8797 2.32501 11.2374 2.95097C9.44894 4.29232 7.30278 7.06445 6.73646 8.7635C6.52779 9.32986 6.43837 9.9856 6.43837 10.6116C6.43837 10.8501 6.61722 11.0289 6.85566 11.0289C7.09416 11.0289 7.273 10.8501 7.273 10.6116C7.273 10.075 7.36243 9.50871 7.54127 9.03177C8.07781 7.42214 10.2538 4.67984 11.923 3.48751H13.8009C13.8605 3.48751 13.8903 3.48751 13.9201 3.45769L15.2913 4.6202C16.7221 6.08079 17.974 7.86926 18.3317 9.00194C18.6894 10.1644 18.7788 11.8337 18.0336 12.8472C17.6163 13.4135 16.9605 13.7116 16.0961 13.7116H12.5192C12.2807 13.7116 12.1019 13.8905 12.1019 14.1289C12.1019 14.3674 12.2807 14.5462 12.5192 14.5462H16.0961C17.2288 14.5462 18.1528 14.1289 18.7192 13.3539C19.8221 11.9529 19.524 9.80676 19.1961 8.7635ZM11.0586 0.864429H14.9038C14.5759 1.46058 14.099 2.26541 13.8903 2.65288C13.8605 2.65288 13.8605 2.65288 13.8307 2.65288H12.0422C11.8336 2.26541 11.3865 1.49039 11.0586 0.864429Z" fill="#077DD3"/>
<path d="M31 21.1702C31 21.051 31 20.9615 30.9106 20.8721L26.2308 15.0894C26.2308 15.0596 26.201 15.0596 26.1712 15.0596C26.1712 15.0596 26.1712 15.0596 26.1414 15.0298C26.1414 15.0298 26.1414 15.0298 26.1116 15.0298C26.0817 15 26.052 15 26.0221 15H25.9923C25.9923 15 25.9923 15 25.9625 15H25.9327H25.9029H25.8731H19.5836C19.4644 15 19.3452 15.0596 19.2558 15.149L14.5759 20.9317C14.5461 20.9615 14.5461 20.9914 14.5163 21.0211C14.5163 21.051 14.4865 21.0808 14.4865 21.1106V21.1404V21.1702V27.9664C14.4865 28.2048 14.6654 28.3837 14.9038 28.3837H30.5827C30.8212 28.3837 31 28.2048 31 27.9664V21.2V21.1702ZM20.8654 27.5789H15.3211V21.6173H20.8654V27.5789ZM15.7683 20.7827L19.7625 15.775H25.0385L21.0442 20.7827H15.7683ZM26.8568 27.5789H25.0385V24.5385C25.0385 24.0318 25.4558 23.6443 25.9625 23.6443C26.4693 23.6443 26.8865 24.0615 26.8865 24.5385V27.5789H26.8568ZM27.7212 27.5789V24.5385C27.7212 23.5847 26.9164 22.8096 25.9625 22.8096C24.9789 22.8096 24.2038 23.5847 24.2038 24.5385V27.5789H21.7298V21.3192L25.9327 16.0433L30.1654 21.2596V27.5789H27.7212Z" fill="#00409A"/>
<path d="M16.1856 16.7224C16.0962 16.0666 15.5597 15.5599 14.9039 15.53H14.8741L11.2972 15.6493C11.3568 14.9637 10.9097 14.2781 10.1943 14.0695L8.10771 13.5031L6.58751 12.3704C5.6635 11.6848 4.56059 11.3271 3.39809 11.3271H0.417308C0.178847 11.3271 0 11.506 0 11.7444C0 11.9829 0.178847 12.1618 0.417308 12.1618H3.36827C4.35192 12.1618 5.27598 12.4598 6.05097 13.056L7.66059 14.2185C7.69041 14.2483 7.75001 14.2781 7.80966 14.2781L9.95582 14.8743C10.3135 14.9935 10.5221 15.3214 10.4327 15.6791C10.4029 15.8579 10.2837 15.9772 10.1347 16.0666C9.9856 16.156 9.77697 16.1858 9.59813 16.1262L5.7231 15.0233C5.48465 14.9637 5.27598 15.0829 5.18656 15.3214C5.12696 15.5599 5.24616 15.7685 5.48465 15.8579L9.35964 16.9608C9.50871 16.9906 9.65773 17.0204 9.77697 17.0204C10.0452 17.0204 10.3135 16.9608 10.552 16.8118C10.701 16.7224 10.8202 16.6031 10.9395 16.4839C10.9693 16.4839 10.9991 16.4839 11.0289 16.4839L14.8443 16.3647C15.0827 16.3945 15.2914 16.5733 15.3212 16.8118C15.351 17.0502 15.202 17.2887 14.9635 17.3483L10.6414 18.2724C9.44906 18.5406 8.16735 18.3618 7.09427 17.8252L3.84521 16.2156C3.66636 16.1262 3.48751 16.0964 3.27884 16.0964H0.417308C0.178847 16.0964 0 16.305 0 16.5137C0 16.7224 0.178847 16.931 0.417308 16.931H3.30867C3.36827 16.931 3.42791 16.931 3.48751 16.9608L6.73658 18.5704C7.60099 18.9877 8.55482 19.2262 9.53848 19.2262C9.9856 19.2262 10.4327 19.1666 10.8501 19.0772L15.202 18.1532C15.8279 18.0339 16.2751 17.4079 16.1856 16.7224Z" fill="#00409A"/>
</svg>
