<svg width="30" height="31" viewBox="0 0 30 31" fill="none" xmlns="http://www.w3.org/2000/svg">
<path d="M5.32148 19.2285H3.01517C2.78456 19.2285 2.61159 19.4015 2.61159 19.6321V23.9564C2.61159 24.187 2.78456 24.36 3.01517 24.36H5.32148C5.55209 24.36 5.72506 24.187 5.72506 23.9564V19.6321C5.72506 19.4015 5.52325 19.2285 5.32148 19.2285ZM4.88905 23.5528H3.38996V20.0357H4.88905V23.5528Z" fill="#00409A"/>
<path d="M9.93429 19.2285H7.62798C7.39737 19.2285 7.2244 19.4015 7.2244 19.6321V23.9564C7.2244 24.187 7.39737 24.36 7.62798 24.36H9.93429C10.1649 24.36 10.3379 24.187 10.3379 23.9564V19.6321C10.3379 19.4015 10.1649 19.2285 9.93429 19.2285ZM9.53066 23.5528H8.03161V20.0357H9.53066V23.5528Z" fill="#00409A"/>
<path d="M22.3592 19.2285H20.0529C19.8223 19.2285 19.6493 19.4015 19.6493 19.6321V23.9564C19.6493 24.187 19.8223 24.36 20.0529 24.36H22.3592C22.5898 24.36 22.7628 24.187 22.7628 23.9564V19.6321C22.7628 19.4015 22.5898 19.2285 22.3592 19.2285ZM21.9556 23.5528H20.4566V20.0357H21.9556V23.5528Z" fill="#00409A"/>
<path d="M27.0005 19.2285H24.6942C24.4636 19.2285 24.2906 19.4015 24.2906 19.6321V23.9564C24.2906 24.187 24.4636 24.36 24.6942 24.36H27.0005C27.2312 24.36 27.4041 24.187 27.4041 23.9564V19.6321C27.4041 19.4015 27.2312 19.2285 27.0005 19.2285ZM26.5969 23.5528H25.0979V20.0357H26.5969V23.5528Z" fill="#00409A"/>
<path d="M17.1415 13.1172C17.1415 11.9352 16.1902 10.9839 15.0082 10.9839C13.8262 10.9839 12.8749 11.9352 12.8749 13.1172C12.8749 14.2992 13.8262 15.2505 15.0082 15.2505C16.1902 15.2505 17.1415 14.2992 17.1415 13.1172ZM13.6532 13.1172C13.6532 12.3965 14.2586 11.7911 14.9794 11.7911C15.7001 11.7911 16.3054 12.3965 16.3054 13.1172C16.3054 13.8379 15.7001 14.4433 14.9794 14.4433C14.2586 14.4433 13.6532 13.8667 13.6532 13.1172Z" fill="#00409A"/>
<path d="M29.97 16.0286L27.4043 8.27379C27.3466 8.10082 27.2025 7.98549 27.0295 7.98549H16.6801L15.4981 7.09179C15.4693 7.06299 15.4405 7.06299 15.4116 7.03415V0.807198H16.3342V2.56575C16.3342 2.79637 16.5071 2.96934 16.7377 2.96934C16.9684 2.96934 17.1413 2.79637 17.1413 2.56575V0.403597C17.1413 0.172971 16.9684 0 16.7377 0H15.008C14.7774 0 14.6045 0.172971 14.6045 0.403597V7.00531C14.5468 7.03415 14.4891 7.06299 14.4603 7.09179L13.2783 7.98549C13.2495 7.98549 13.1918 7.95664 13.163 7.95664H2.95773C2.78476 7.95664 2.61179 8.07197 2.58299 8.24494L0.0172427 15.9998C-0.0115872 16.1151 -0.0115872 16.2592 0.0748981 16.3746C0.161383 16.4899 0.276699 16.5475 0.392014 16.5475H2.98657C3.21719 16.5475 3.39016 16.3746 3.39016 16.144V13.117C3.39016 12.7133 3.7361 12.3674 4.13973 12.3674C4.54331 12.3674 4.88925 12.7133 4.88925 13.117V16.144C4.88925 16.144 4.88925 16.144 4.88925 16.1728C4.88925 16.1728 4.88925 16.1728 4.88925 16.2016C4.88925 16.4322 5.06222 16.6052 5.29284 16.6052H7.59914C7.82975 16.6052 8.00273 16.4322 8.00273 16.2016V13.117C8.00273 12.7133 8.34867 12.3674 8.75225 12.3674C9.15588 12.3674 9.50182 12.7133 9.50182 13.117V16.1728C9.50182 16.4034 9.67479 16.5764 9.9054 16.5764C10.136 16.5764 10.309 16.4034 10.309 16.1728V13.117C10.309 12.2521 9.6171 11.5602 8.75225 11.5602C7.8874 11.5602 7.22436 12.2521 7.22436 13.117V15.7403H5.72526V13.117C5.72526 12.2521 5.03338 11.5602 4.16853 11.5602C3.30367 11.5602 2.61179 12.2521 2.61179 13.117V15.7115H0.997411L3.30367 8.7927H12.2405L10.7703 9.91701C10.5973 10.0611 10.5396 10.3206 10.6838 10.4936C10.8279 10.6665 11.0874 10.7242 11.2603 10.58L14.9792 7.78367H15.0369L18.7558 10.58C18.8422 10.6377 18.9287 10.6665 19.0152 10.6665C19.1305 10.6665 19.2747 10.6089 19.3323 10.4936C19.4764 10.3206 19.4188 10.0611 19.2458 9.91701L17.8044 8.8215H26.77L29.0763 15.7403H27.4043V13.117C27.4043 12.2521 26.7124 11.5602 25.8476 11.5602C24.9827 11.5602 24.2908 12.2521 24.2908 13.117V15.7403H22.7917V13.117C22.7917 12.2521 22.0998 11.5602 21.235 11.5602C20.3701 11.5602 19.6782 12.2521 19.6782 13.117V16.1728C19.6782 16.4034 19.8512 16.5764 20.0818 16.5764C20.3125 16.5764 20.4855 16.4034 20.4855 16.1728V13.117C20.4855 12.7133 20.8314 12.3674 21.235 12.3674C21.6386 12.3674 21.9845 12.7133 21.9845 13.117V16.1728C21.9845 16.4034 22.1575 16.5764 22.3881 16.5764H24.6944C24.925 16.5764 25.098 16.4034 25.098 16.1728V13.117C25.098 12.7133 25.4439 12.3674 25.8476 12.3674C26.2511 12.3674 26.5971 12.7133 26.5971 13.117V16.1728C26.5971 16.4034 26.77 16.5764 27.0007 16.5764H29.5952C29.7394 16.5764 29.8547 16.5187 29.9124 16.4034C29.9988 16.2881 30.0276 16.144 29.97 16.0286Z" fill="#00409A"/>
<path d="M16.3055 28.4249C16.5361 28.4249 16.7091 28.2519 16.7091 28.0213C16.7091 27.7906 16.5361 27.6177 16.3055 27.6177H13.7109C13.4803 27.6177 13.3073 27.7906 13.3073 28.0213C13.3073 28.2519 13.4803 28.4249 13.7109 28.4249H16.3055Z" fill="#00409A"/>
<path d="M18.0348 29.3477H11.952C11.7214 29.3477 11.5484 29.5206 11.5484 29.7512C11.5484 29.9819 11.7214 30.1549 11.952 30.1549H18.0348C18.2654 30.1549 18.4384 29.9819 18.4384 29.7512C18.4384 29.5206 18.2654 29.3477 18.0348 29.3477Z" fill="#00409A"/>
<path d="M18.0348 16.3164H11.952C11.7214 16.3164 11.5484 16.4894 11.5484 16.72V19.0263C11.5484 19.2569 11.7214 19.4299 11.952 19.4299H18.0348C18.2654 19.4299 18.4384 19.2569 18.4384 19.0263V16.72C18.4384 16.5182 18.2654 16.3164 18.0348 16.3164ZM17.6312 18.6515H12.3556V17.1525H17.6024V18.6515H17.6312Z" fill="#00409A"/>
<path d="M29.0188 17.499H19.4765C19.2459 17.499 19.0729 17.672 19.0729 17.9027C19.0729 18.1333 19.2459 18.3062 19.4765 18.3062H28.6152V25.2827H18.4387V20.7855C18.4387 20.5549 18.2657 20.3819 18.0351 20.3819H11.9523C11.7217 20.3819 11.5487 20.5549 11.5487 20.7855V25.2827H1.37227V18.3062H10.2226C10.4533 18.3062 10.6262 18.1333 10.6262 17.9027C10.6262 17.672 10.4533 17.499 10.2226 17.499H0.968676C0.738049 17.499 0.565079 17.672 0.565079 17.9027C0.565079 17.9314 0.565079 17.9603 0.565079 17.9891C0.565079 18.0179 0.565079 18.0468 0.565079 18.0756V28.0214C0.565079 28.252 0.738049 28.425 0.968676 28.425H11.9523C12.183 28.425 12.3559 28.252 12.3559 28.0214V21.1891H14.5757V26.2917C14.5757 26.5223 14.7487 26.6953 14.9793 26.6953C15.2099 26.6953 15.3829 26.5223 15.3829 26.2917V21.1891H17.6027V28.0214C17.6027 28.252 17.7757 28.425 18.0063 28.425H28.9899C29.2206 28.425 29.3936 28.252 29.3936 28.0214V17.9027C29.4223 17.672 29.2494 17.499 29.0188 17.499ZM11.5487 27.6178H1.37227V26.1188H11.5487V27.6178ZM28.6152 27.6178H18.4387V26.1188H28.6152V27.6178Z" fill="#00409A"/>
<path d="M18.3807 4.29549H20.1969C20.4275 4.29549 20.6005 4.12252 20.6005 3.89191V1.00907C20.6005 0.77844 20.4275 0.605469 20.1969 0.605469C19.9662 0.605469 19.7933 0.77844 19.7933 1.00907V3.48832H18.7843V1.44149C18.7843 1.21087 18.6113 1.0379 18.3807 1.0379C18.1501 1.0379 17.9771 1.21087 17.9771 1.44149V3.89191C17.9771 4.09372 18.1501 4.29549 18.3807 4.29549Z" fill="#00409A"/>
</svg>
