<svg width="25" height="25" viewBox="0 0 25 25" fill="none" xmlns="http://www.w3.org/2000/svg">
<path d="M18.3987 0C18.3519 0 18.3052 0 18.2584 0C18.235 0 18.2116 0 18.1883 0H2.75864C1.23905 0 0 1.23905 0 2.75865V4.30161V4.67564V23.9627C0 24.1497 0.140269 24.29 0.327298 24.29H10.2397C10.4267 24.29 10.5669 24.1497 10.5669 23.9627C10.5669 23.7757 10.4267 23.6354 10.2397 23.6354H0.677971V4.67564V4.30161V2.75865C0.677971 1.6131 1.6131 0.654592 2.782 0.654592H16.6219C16.0375 1.16891 15.6634 1.91703 15.6634 2.75865V13.3256C15.6634 13.5126 15.8037 13.6529 15.9907 13.6529C16.1777 13.6529 16.318 13.5126 16.318 13.3256V2.75865C16.318 1.6131 17.2531 0.654592 18.422 0.654592C19.591 0.654592 20.5261 1.58971 20.5261 2.75865V4.34835H17.5337C17.3467 4.34835 17.2064 4.48862 17.2064 4.67564C17.2064 4.86269 17.3467 5.00296 17.5337 5.00296H20.83C21.017 5.00296 21.1573 4.86269 21.1573 4.67564V2.75865C21.1339 1.23905 19.9183 0 18.3987 0Z" fill="#00409A"/>
<path d="M12.8109 4.76904H3.41285C3.22584 4.76904 3.08557 4.90931 3.08557 5.09633C3.08557 5.28338 3.22584 5.42364 3.41285 5.42364H12.8109C12.998 5.42364 13.1382 5.28338 13.1382 5.09633C13.1382 4.90931 12.998 4.76904 12.8109 4.76904Z" fill="#00409A"/>
<path d="M12.8109 6.87305H3.41285C3.22584 6.87305 3.08557 7.01332 3.08557 7.20033C3.08557 7.38738 3.22584 7.52765 3.41285 7.52765H12.8109C12.998 7.52765 13.1382 7.38738 13.1382 7.20033C13.1382 7.01332 12.998 6.87305 12.8109 6.87305Z" fill="#00409A"/>
<path d="M12.8109 8.97705H3.41285C3.22584 8.97705 3.08557 9.11732 3.08557 9.30433C3.08557 9.49138 3.22584 9.63165 3.41285 9.63165H12.8109C12.998 9.63165 13.1382 9.49138 13.1382 9.30433C13.1382 9.11732 12.998 8.97705 12.8109 8.97705Z" fill="#00409A"/>
<path d="M12.8109 11.0811H3.41285C3.22584 11.0811 3.08557 11.2213 3.08557 11.4083C3.08557 11.5954 3.22584 11.7357 3.41285 11.7357H12.8109C12.998 11.7357 13.1382 11.5954 13.1382 11.4083C13.1382 11.2213 12.998 11.0811 12.8109 11.0811Z" fill="#00409A"/>
<path d="M12.8109 13.1851H3.41285C3.22584 13.1851 3.08557 13.3253 3.08557 13.5123C3.08557 13.6994 3.22584 13.8397 3.41285 13.8397H12.8109C12.998 13.8397 13.1382 13.6994 13.1382 13.5123C13.1382 13.3253 12.998 13.1851 12.8109 13.1851Z" fill="#00409A"/>
<path d="M12.8109 15.2891H3.41285C3.22584 15.2891 3.08557 15.4293 3.08557 15.6163C3.08557 15.8034 3.22584 15.9437 3.41285 15.9437H12.8109C12.998 15.9437 13.1382 15.8034 13.1382 15.6163C13.1382 15.4293 12.998 15.2891 12.8109 15.2891Z" fill="#00409A"/>
<path d="M4.39505 18.0245C4.20804 18.0011 4.04438 18.1179 4.02102 18.305L3.45994 21.6247C3.43655 21.7883 3.53008 21.9286 3.67035 21.9987C3.71709 22.0221 3.74048 22.0221 3.78723 22.0221C3.90411 22.0221 4.02102 21.952 4.06777 21.8585L5.14318 19.9414L5.65747 21.0169C5.70425 21.1104 5.79774 21.1805 5.91466 21.2039C6.03154 21.2273 6.14842 21.1805 6.21855 21.087L7.03681 20.0584L7.50437 20.7831C7.55111 20.8532 7.64463 20.9233 7.73816 20.9233C7.83165 20.9467 7.92517 20.9233 7.99531 20.8532L9.37461 19.7544C9.51488 19.6375 9.53827 19.4271 9.42139 19.2869C9.30448 19.1466 9.09407 19.1232 8.9538 19.2401L7.85504 20.1285L7.34071 19.3336C7.29396 19.2401 7.17708 19.1934 7.08356 19.1934C6.96668 19.1934 6.87315 19.2401 6.80302 19.3102L6.03154 20.2688L5.47046 19.0765C5.42371 18.9596 5.3068 18.8894 5.18992 18.8894C5.07304 18.8894 4.95613 18.9596 4.88599 19.0531L4.44183 19.8713L4.67559 18.4453C4.69898 18.2115 4.5821 18.0478 4.39505 18.0245Z" fill="#00409A"/>
<path d="M23.9628 12.6706L23.4484 12.2732C23.7524 11.4783 23.5186 10.5432 22.8172 10.0055C21.9523 9.35095 20.7132 9.49122 20.0586 10.3562L13.0451 19.4036C12.9282 19.5438 12.9516 19.7542 13.1153 19.8712L13.4192 20.1049L12.3438 21.5076C12.1801 21.718 12.11 21.9985 12.1334 22.2791C12.1568 22.5129 12.2737 22.7233 12.4607 22.8869L11.8061 23.7519C11.6892 23.8922 11.7126 24.1026 11.8762 24.2195C11.9463 24.2663 12.0165 24.2896 12.0866 24.2896C12.1801 24.2896 12.2737 24.2429 12.3438 24.1727L12.9984 23.3078C13.162 23.4246 13.349 23.4714 13.5361 23.4714C13.84 23.4714 14.1439 23.3311 14.3543 23.074L15.4297 21.6713L15.7336 21.9051C15.7804 21.9518 15.8739 21.9752 15.944 21.9752C15.9674 21.9752 15.9674 21.9752 15.9908 21.9752C16.0843 21.9752 16.1544 21.9284 16.2012 21.8583L23.1212 12.8577L23.5654 13.2084C23.7524 13.3486 23.7758 13.6058 23.6355 13.7928L21.3678 16.7151C21.2509 16.8554 21.2743 17.0658 21.4379 17.1826C21.5081 17.2294 21.5782 17.2528 21.6483 17.2528C21.7418 17.2528 21.8353 17.206 21.9055 17.1359L24.1732 14.2136C24.5238 13.7227 24.4303 13.0447 23.9628 12.6706ZM13.7932 22.6765C13.6764 22.8402 13.4426 22.8636 13.2789 22.7467L12.9049 22.4661C12.8347 22.396 12.788 22.3258 12.7646 22.209C12.7412 22.1155 12.788 22.0219 12.8347 21.9284L13.9101 20.5257L14.8686 21.2738L13.7932 22.6765ZM15.8505 21.1803L14.1205 19.8478L14.0738 19.801L13.7698 19.5672L20.5729 10.777C21.0171 10.2159 21.8353 10.099 22.3964 10.5432C22.9575 10.9874 23.0744 11.8057 22.6302 12.3667L15.8505 21.1803Z" fill="#077DD3"/>
</svg>
