<svg width="28" height="25" viewBox="0 0 28 25" fill="none" xmlns="http://www.w3.org/2000/svg">
<path d="M5.64862 10.3121C5.02392 10.4423 4.39921 10.2861 3.87864 9.92169C3.35802 9.55729 2.99362 9.01067 2.88949 8.38597C2.86349 8.17771 2.65523 8.04757 2.47305 8.07362C2.26479 8.09962 2.13466 8.30788 2.1607 8.49006C2.31687 9.32303 2.75936 10.0258 3.46215 10.4943C3.98273 10.8587 4.58143 11.041 5.20614 11.041C5.38832 11.041 5.59658 11.0149 5.77876 10.9889C5.98702 10.9629 6.11715 10.7546 6.0651 10.5464C6.0651 10.4163 5.85684 10.2861 5.64862 10.3121Z" fill="#077DD3"/>
<path d="M10.724 0.446777C9.00605 0.446777 7.60046 1.85235 7.60046 3.57029C7.60046 3.77855 7.75664 3.93473 7.96486 3.93473C8.17312 3.93473 8.3293 3.77855 8.3293 3.57029C8.3293 2.24279 9.39649 1.1756 10.724 1.1756C10.9322 1.1756 11.0884 1.01942 11.0884 0.811203C11.0884 0.602942 10.9322 0.446777 10.724 0.446777Z" fill="#077DD3"/>
<path d="M24.8583 4.14336C24.0253 2.99804 22.5416 2.58159 21.2922 3.05012C21.2922 2.76377 21.2402 2.47746 21.1361 2.16511C20.8758 1.35819 20.3291 0.733482 19.5743 0.343053C18.8194 -0.0473881 17.9865 -0.0994454 17.2056 0.16085C15.8521 0.603348 14.9931 1.85276 15.0452 3.2063C14.7588 3.12821 14.4465 3.07613 14.1602 3.07613C14.1602 3.07613 14.1602 3.07613 14.1341 3.07613H14.1081C12.4162 3.10217 11.0367 4.48171 11.0367 6.19965C11.0367 7.18879 11.5052 8.12585 12.3121 8.69847C12.4683 8.82865 12.7025 8.77656 12.8327 8.62038C12.9628 8.46421 12.9108 8.22994 12.7546 8.09981C12.1559 7.65732 11.7915 6.92849 11.7915 6.17365C11.7915 4.87215 12.8587 3.77892 14.1602 3.77892C14.2122 3.77892 14.2643 3.77892 14.2903 3.77892C14.3424 3.77892 14.3684 3.77892 14.4205 3.77892C14.4986 3.77892 14.5767 3.80496 14.6547 3.80496C15.1493 3.90909 15.6178 4.1954 15.9302 4.58584C16.0082 4.66393 16.1124 4.71598 16.2165 4.71598C16.2946 4.71598 16.3727 4.68997 16.4508 4.63789C16.607 4.50775 16.633 4.27349 16.5028 4.11731C16.3206 3.88305 16.0863 3.70083 15.8521 3.54465C15.6178 2.39937 16.2946 1.22805 17.4399 0.837612C18.0385 0.62939 18.6893 0.681436 19.2619 0.967746C19.7825 1.22805 20.199 1.69658 20.4072 2.2432C20.4072 2.26924 20.4072 2.32129 20.4333 2.34733C20.6154 2.91995 20.5894 3.54465 20.3552 4.06527C20.2771 4.24745 20.3552 4.48171 20.5374 4.5598C20.5634 4.61189 20.6154 4.61189 20.6675 4.61189C20.7977 4.61189 20.9538 4.5338 21.0059 4.37762C21.084 4.22144 21.1361 4.06527 21.1621 3.88305C22.1772 3.28439 23.5568 3.5707 24.2596 4.5598C24.65 5.08041 24.8062 5.70512 24.7021 6.35583C24.5979 6.98053 24.2856 7.50115 23.7911 7.86555C23.765 7.86555 23.739 7.89159 23.739 7.89159C23.5308 8.02172 23.3225 8.12585 23.1143 8.20394C22.9581 8.25599 22.8019 8.28203 22.6457 8.30803C22.6197 8.30803 22.6197 8.30803 22.5937 8.30803C22.2813 8.33407 21.9429 8.33407 21.6306 8.22994C21.4224 8.1779 21.2402 8.28203 21.1621 8.49025C21.11 8.69847 21.2142 8.88069 21.4224 8.95878C21.7087 9.03687 22.021 9.08891 22.3074 9.08891C22.3855 9.08891 22.4636 9.08891 22.5416 9.08891C23.4006 9.92188 23.5308 11.2754 22.828 12.2124C22.0471 13.2536 20.5374 13.4879 19.4962 12.7331C19.1578 12.4727 18.8715 12.1604 18.7413 11.822C18.7413 11.796 18.7153 11.77 18.6893 11.7439C18.5852 11.4836 18.5071 11.1973 18.5071 10.8849C18.5071 10.6767 18.3249 10.5205 18.1166 10.5205C17.9084 10.5205 17.7522 10.7028 17.7522 10.911C17.7522 11.2754 17.8303 11.6398 17.9605 11.9782C17.4659 13.0454 16.2165 13.592 15.0712 13.2276C14.4725 13.0194 13.978 12.6029 13.6916 12.0563C13.4053 11.4836 13.3533 10.8589 13.5615 10.2342C13.6916 9.84379 13.9259 9.5054 14.2122 9.21909C14.2383 9.19304 14.2643 9.167 14.2643 9.141C14.5246 8.90673 14.8369 8.75056 15.2014 8.64643C15.4096 8.59438 15.5137 8.38612 15.4616 8.20394C15.4096 8.02172 15.2014 7.89159 15.0191 7.94363C14.004 8.20394 13.1711 8.98482 12.8327 9.99997C12.8066 10.052 12.8066 10.1041 12.8066 10.1561C12.5984 10.911 12.6765 11.6919 13.0409 12.3947C13.4053 13.1235 14.056 13.6701 14.863 13.9304C15.1753 14.0345 15.5137 14.0866 15.8261 14.0866C16.8412 14.0866 17.8303 13.592 18.403 12.7331C18.5852 12.9673 18.7934 13.1755 19.0277 13.3578C19.0797 13.3838 19.1318 13.4098 19.1839 13.4098C20.5634 14.2948 22.4115 13.9825 23.4266 12.655C24.2596 11.5357 24.2075 9.99997 23.3746 8.90673C23.6349 8.82865 23.9212 8.69847 24.1815 8.49025C24.8583 7.99568 25.3007 7.29289 25.4309 6.45996C25.561 5.65303 25.3788 4.82011 24.8583 4.14336Z" fill="#077DD3"/>
<path d="M18.4024 9.86964C18.1421 9.86964 17.9078 9.79156 17.6996 9.63538C17.4393 9.4532 17.2831 9.16685 17.2311 8.8545C17.179 8.54215 17.2571 8.22979 17.4653 7.99553C17.6475 7.73526 17.9339 7.57908 18.2462 7.527C18.8969 7.44891 19.4956 7.89144 19.5737 8.51614C19.6518 9.16685 19.2093 9.76555 18.5846 9.84364C18.5065 9.86964 18.4544 9.86964 18.4024 9.86964ZM18.4024 8.25583C18.3763 8.25583 18.3503 8.25583 18.3503 8.25583C18.2462 8.28188 18.1421 8.33392 18.064 8.43805C17.9859 8.51614 17.9599 8.64628 17.9599 8.75041C17.9859 8.8545 18.038 8.95863 18.1421 9.03672C18.2462 9.1148 18.3503 9.14085 18.4544 9.11481C18.6887 9.08876 18.8709 8.8545 18.8188 8.62023C18.8188 8.41201 18.6106 8.25583 18.4024 8.25583Z" fill="#00409A"/>
<path d="M19.2876 7.2929C18.9492 7.2929 18.5848 7.13673 18.3505 6.85042C18.1684 6.59011 18.0642 6.3038 18.1163 5.99145C18.1423 5.6791 18.3245 5.39275 18.5588 5.21057C18.7931 5.02835 19.1054 4.92422 19.4178 4.9763C19.7301 5.00231 20.0164 5.18452 20.1986 5.41879C20.5891 5.93936 20.511 6.6682 19.9904 7.05864C19.8082 7.21482 19.5479 7.2929 19.2876 7.2929ZM19.2876 5.67909C19.1835 5.67909 19.1054 5.7051 19.0273 5.78319C18.9232 5.86127 18.8711 5.96541 18.8711 6.06954C18.8451 6.17363 18.8972 6.3038 18.9492 6.38189C19.1054 6.56407 19.3657 6.61615 19.5739 6.45998C19.7561 6.3038 19.8082 6.04349 19.652 5.83527C19.5739 5.73114 19.4698 5.67909 19.3657 5.67909C19.3136 5.7051 19.3136 5.67909 19.2876 5.67909Z" fill="#00409A"/>
<path d="M16.6322 7.81382C16.476 7.81382 16.3459 7.78777 16.1897 7.73573C15.9033 7.60559 15.6691 7.39733 15.5389 7.11102C15.4088 6.82471 15.4088 6.51236 15.5389 6.20001C15.6691 5.88766 15.8773 5.67939 16.1637 5.54926C16.45 5.41913 16.7623 5.41913 17.0747 5.54926C17.6734 5.78353 17.9597 6.48632 17.7254 7.08498C17.5432 7.52751 17.1007 7.81382 16.6322 7.81382ZM16.6322 6.20001C16.5801 6.20001 16.528 6.20001 16.45 6.22601C16.3459 6.2781 16.2678 6.35618 16.2157 6.46028C16.1637 6.56441 16.1637 6.69454 16.2157 6.79867C16.2678 6.9028 16.3459 6.98089 16.45 7.03294C16.6842 7.11102 16.9185 7.00689 17.0226 6.79867C17.1007 6.56441 16.9966 6.33014 16.7884 6.22601C16.7363 6.20001 16.6842 6.20001 16.6322 6.20001Z" fill="#00409A"/>
<path d="M17.6477 5.15843C17.5436 5.15843 17.4655 5.13242 17.3874 5.05433C17.3093 4.97625 17.2833 4.89816 17.2833 4.79403C17.2833 4.6899 17.3353 4.61181 17.3874 4.53372C17.4134 4.50772 17.4134 4.50772 17.4394 4.48167C17.4655 4.45563 17.4915 4.45563 17.4915 4.45563C17.5175 4.45563 17.5436 4.42963 17.5696 4.42963C17.6997 4.40359 17.8299 4.45563 17.908 4.53372C17.9861 4.61181 18.0121 4.6899 18.0121 4.79403C18.0121 4.84607 18.0121 4.89816 17.9861 4.92416C17.96 4.97625 17.934 5.00225 17.908 5.05433C17.8819 5.08034 17.8299 5.10638 17.7778 5.13242C17.7518 5.15843 17.6997 5.15843 17.6477 5.15843Z" fill="#00409A"/>
<path d="M16.3464 8.93275C16.2944 8.93275 16.2423 8.93275 16.2163 8.90671C16.1642 8.88071 16.1382 8.85467 16.0861 8.82862C16.0081 8.75054 15.982 8.67245 15.982 8.56836C15.982 8.46423 16.0341 8.38614 16.0861 8.30805C16.2163 8.17792 16.4766 8.17792 16.6067 8.30805C16.6848 8.38614 16.7108 8.46423 16.7108 8.56836C16.7108 8.67245 16.6588 8.75054 16.6067 8.82862C16.5807 8.85467 16.5286 8.88071 16.4766 8.90671C16.4505 8.93275 16.3985 8.93275 16.3464 8.93275Z" fill="#00409A"/>
<path d="M20.3806 8.28196C20.2765 8.28196 20.1985 8.25596 20.1204 8.17787C20.0423 8.09978 20.0162 8.02169 20.0162 7.91756C20.0162 7.89152 20.0162 7.86552 20.0162 7.83947C20.0162 7.81343 20.0162 7.78743 20.0423 7.76139C20.0423 7.73534 20.0683 7.70934 20.0683 7.70934C20.0683 7.6833 20.0943 7.6833 20.1204 7.65726C20.1985 7.57917 20.3286 7.52712 20.4587 7.55316C20.4848 7.55316 20.5108 7.55316 20.5368 7.57917C20.5629 7.57917 20.5889 7.60521 20.5889 7.60521C20.6149 7.60521 20.6149 7.63125 20.6409 7.65726C20.667 7.6833 20.667 7.6833 20.693 7.70934C20.719 7.73534 20.719 7.76139 20.719 7.76139C20.719 7.78743 20.7451 7.81343 20.7451 7.83947C20.7451 7.86552 20.7451 7.89152 20.7451 7.91756C20.7451 7.96961 20.7451 8.02169 20.719 8.0477C20.693 8.09978 20.667 8.12578 20.6409 8.17787C20.5629 8.25596 20.4848 8.28196 20.3806 8.28196Z" fill="#00409A"/>
<path d="M27.0964 18.5375C26.4977 17.1059 24.9099 16.4031 23.4523 16.9497L18.9752 18.7718C18.8972 17.8607 18.1163 17.1319 17.1532 17.1319H13.9516L13.5091 16.8196C11.7391 15.5962 9.29231 14.8413 7.00175 14.8413C6.79349 14.8413 6.63731 14.9975 6.63731 15.2057C6.63731 15.414 6.79349 15.5701 7.00175 15.5701C9.16217 15.5701 11.4267 16.2469 13.0926 17.3922L13.3269 17.5744C13.3529 17.7306 13.5091 17.8607 13.6913 17.8607H17.1792C17.7779 17.8607 18.2724 18.3553 18.2724 18.9539C18.2724 19.5526 17.7779 20.0472 17.1792 20.0472H11.0623C10.8541 20.0472 10.6979 20.2033 10.6979 20.4116C10.6979 20.6198 10.8541 20.776 11.0623 20.776H17.1532C17.9341 20.776 18.5848 20.3075 18.8451 19.6307L23.7126 17.6265C24.6757 17.262 25.7429 17.6525 26.2635 18.4854L17.0751 22.9104C15.5134 23.6653 13.7433 23.7694 12.1035 23.2228L7.10584 21.5829C6.92366 21.5308 6.7154 21.635 6.63731 21.8172C6.58527 21.9994 6.6894 22.2076 6.87158 22.2857L11.8692 23.9256C12.6241 24.1858 13.405 24.29 14.1859 24.29C15.2791 24.29 16.3723 24.0557 17.3875 23.5612L26.9142 18.98C27.0964 18.9279 27.1745 18.7197 27.0964 18.5375Z" fill="#00409A"/>
<path d="M4.45102 13.3843H1.14529C0.494556 13.3843 0 13.8788 0 14.5296V22.7549C0 23.4056 0.494556 23.9001 1.14529 23.9001H4.45102C5.07573 23.9001 5.5963 23.3796 5.5963 22.7549V14.5296C5.5963 13.8788 5.10177 13.3843 4.45102 13.3843ZM4.86751 22.7549C4.86751 22.9631 4.65925 23.1713 4.45102 23.1713H1.14529C0.911027 23.1713 0.72882 22.9891 0.72882 22.7549V14.5296C0.72882 14.2953 0.911027 14.1131 1.14529 14.1131H4.45102C4.68529 14.1131 4.86751 14.2953 4.86751 14.5296V22.7549Z" fill="#00409A"/>
<path d="M3.27911 20.1257C2.9928 19.9956 2.68045 20.0216 2.3681 20.1257C2.05575 20.2298 1.84752 20.4641 1.74339 20.7765C1.61324 21.0628 1.63927 21.3751 1.74339 21.6875C1.87353 21.9738 2.08179 22.2081 2.39414 22.3122C2.55032 22.3642 2.68045 22.3903 2.83663 22.3903C3.30516 22.3903 3.74764 22.104 3.92986 21.6614C4.16413 21.0367 3.87782 20.36 3.27911 20.1257ZM3.25311 21.3751C3.17502 21.6094 2.91472 21.7135 2.68045 21.6094C2.57632 21.5573 2.49823 21.4793 2.44619 21.3751C2.39414 21.271 2.39414 21.1409 2.44619 21.0367C2.49823 20.9326 2.57632 20.8546 2.68045 20.8025C2.7325 20.7765 2.78458 20.7765 2.86267 20.7765C2.91472 20.7765 2.96676 20.7765 3.01885 20.8025C3.22707 20.8806 3.3312 21.1409 3.25311 21.3751Z" fill="#00409A"/>
</svg>
