<svg width="33" height="25" viewBox="0 0 33 25" fill="none" xmlns="http://www.w3.org/2000/svg">
<path d="M32.2422 10.9224L31.2642 8.17763C30.9171 7.13651 29.9391 6.41091 28.8034 6.41091H24.355V0.795184C24.355 0.542809 24.1657 0.353516 23.9133 0.353516H3.28029C3.02792 0.353516 2.83862 0.542809 2.83862 0.795184V16.2857C2.83862 16.3172 2.83862 16.3488 2.83862 16.3803V20.1662C2.83862 20.4186 3.02792 20.6079 3.28029 20.6079H5.45717C5.45717 20.7026 5.45717 20.7972 5.45717 20.8919C5.45717 22.9741 7.12929 24.6462 9.21152 24.6462C11.2937 24.6462 12.9658 22.9741 12.9658 20.8919C12.9658 20.7972 12.9658 20.7026 12.9658 20.6079H21.2632C21.2632 20.7026 21.2632 20.7972 21.2632 20.8919C21.2632 22.9741 22.9353 24.6462 25.0175 24.6462C27.0997 24.6462 28.7403 22.9741 28.7403 20.8919C28.7403 20.7972 28.7403 20.7341 28.7403 20.6394H32.5577C32.8101 20.6394 32.9994 20.4501 32.9994 20.1978V15.3708C32.9994 13.8564 32.747 12.3736 32.2422 10.9224ZM3.75353 1.23685H23.4716V15.8756H3.75353V1.23685ZM9.21152 23.7628C7.63404 23.7628 6.34055 22.4693 6.34055 20.8919C6.34055 19.3144 7.63404 18.0209 9.21152 18.0209C10.505 18.0209 11.6092 18.9043 11.9563 20.0715C11.9563 20.1031 11.9563 20.1347 11.9563 20.1662C11.9563 20.2608 11.9878 20.3555 12.0509 20.4186C12.0824 20.5763 12.0824 20.7341 12.0824 20.8919C12.0824 22.4693 10.7889 23.7628 9.21152 23.7628ZM24.986 23.7628C23.4085 23.7628 22.115 22.4693 22.115 20.8919C22.115 19.3144 23.4085 18.0209 24.986 18.0209C26.5634 18.0209 27.8569 19.3144 27.8569 20.8919C27.8569 22.4693 26.5634 23.7628 24.986 23.7628ZM24.986 17.1375C23.3139 17.1375 21.9257 18.2102 21.4209 19.7245H12.7765C12.2717 18.2102 10.8836 17.1375 9.21152 17.1375C7.53939 17.1375 6.15126 18.2102 5.64646 19.7245H3.72201V16.7589H23.8818C24.1341 16.7589 24.3234 16.5696 24.3234 16.3172V7.29424H28.8034C29.529 7.29424 30.1915 7.76748 30.4124 8.46157L31.3904 11.2379C31.8636 12.5629 32.0844 13.9826 32.0844 15.4023V16.2542C30.791 16.4119 29.7814 17.5161 29.7814 18.8411V19.7561H28.551C28.0777 18.2417 26.658 17.1375 24.986 17.1375ZM30.6963 19.7561V18.8411C30.6963 17.9893 31.2957 17.2953 32.116 17.1375V19.7561H30.6963Z" fill="#00409A"/>
<path d="M24.9867 19.3457C24.1349 19.3457 23.4408 20.0398 23.4408 20.8916C23.4408 21.7434 24.1349 22.4375 24.9867 22.4375C25.8385 22.4375 26.5325 21.7434 26.5325 20.8916C26.5325 20.0398 25.8385 19.3457 24.9867 19.3457ZM24.9867 21.5541C24.6396 21.5541 24.3242 21.2386 24.3242 20.8916C24.3242 20.5445 24.6081 20.2291 24.9867 20.2291C25.3653 20.2291 25.6492 20.513 25.6492 20.8916C25.6492 21.2702 25.3337 21.5541 24.9867 21.5541Z" fill="#00409A"/>
<path d="M9.21179 19.3457C8.35997 19.3457 7.66588 20.0398 7.66588 20.8916C7.66588 21.7434 8.35997 22.4375 9.21179 22.4375C10.0636 22.4375 10.7577 21.7434 10.7577 20.8916C10.7577 20.0398 10.0636 19.3457 9.21179 19.3457ZM9.21179 21.5541C8.86472 21.5541 8.54926 21.2386 8.54926 20.8916C8.54926 20.5445 8.8332 20.2291 9.21179 20.2291C9.59038 20.2291 9.87432 20.513 9.87432 20.8916C9.87432 21.2702 9.55881 21.5541 9.21179 21.5541Z" fill="#00409A"/>
<path d="M30.4759 13.3206C30.7598 13.0366 30.8229 12.6265 30.7283 12.2795L29.7502 9.21925C29.5925 8.74601 29.1508 8.46207 28.6461 8.49359H26.406C25.7751 8.49359 25.3018 8.96682 25.3018 9.56627V11.6169C25.3018 12.1217 25.6489 12.5634 26.1537 12.6896L29.4032 13.6676C29.4979 13.6992 29.5925 13.6992 29.6872 13.6992C29.9395 13.6992 30.255 13.573 30.4759 13.3206ZM26.343 11.8062H26.3114C26.2483 11.7747 26.1537 11.7116 26.1537 11.6169V9.56627C26.1537 9.47162 26.2483 9.37697 26.3745 9.37697H28.6461H28.6776C28.8353 9.37697 28.8669 9.44006 28.8669 9.47162L29.8449 12.5319C29.8765 12.595 29.8133 12.658 29.8133 12.6896C29.7502 12.7527 29.6872 12.7843 29.5925 12.7843L26.343 11.8062Z" fill="#00409A"/>
<path d="M21.7053 5.62246H19.3391C19.276 5.59095 19.2129 5.59095 19.1498 5.59095C19.0867 5.59095 19.0236 5.59095 18.9605 5.62246H14.9538C14.7014 5.62246 14.5121 5.81176 14.5121 6.06418V13.8883H5.74154V9.2506H8.80175V11.2382C8.80175 11.4906 8.99104 11.6799 9.24347 11.6799H10.9786C11.231 11.6799 11.4203 11.4906 11.4203 11.2382V9.2506H12.493C12.5245 9.2506 12.5561 9.2506 12.5876 9.2506C12.84 9.2506 13.0293 9.06131 13.0293 8.80893V3.28786C13.0293 3.03548 12.84 2.84619 12.5876 2.84619H6.40407C6.15164 2.84619 5.96235 3.03548 5.96235 3.28786V8.36722H5.29982C5.04745 8.36722 4.85815 8.55651 4.85815 8.80893V14.33C4.85815 14.5824 5.04745 14.7717 5.29982 14.7717H14.9223H14.9538H21.7053C21.9576 14.7717 22.1469 14.5824 22.1469 14.33V6.06418C22.1469 5.81176 21.9576 5.62246 21.7053 5.62246ZM10.537 10.7965H9.68514V9.2506H10.537V10.7965ZM9.05417 3.72953H9.90599V5.43317H9.05417V3.72953ZM6.84574 3.72953H8.13922V5.87489C8.13922 6.12726 8.32852 6.31655 8.58094 6.31655H10.3161C10.5685 6.31655 10.7578 6.12726 10.7578 5.87489V3.72953H12.1144V8.36722H6.84574V3.72953ZM17.8878 6.50585H18.7397V7.95711H17.8878V6.50585ZM21.2636 13.8883H15.3955V6.50585H16.9729V8.39878C16.9729 8.65116 17.1622 8.84045 17.4146 8.84045H19.1498C19.4022 8.84045 19.5915 8.65116 19.5915 8.39878V6.50585H21.232V13.8883H21.2636Z" fill="#077DD3"/>
<path d="M3.91208 23.5107H0.441683C0.189293 23.5107 0 23.7 0 23.9524C0 24.2048 0.189293 24.3941 0.441683 24.3941H3.91208C4.16446 24.3941 4.35375 24.2048 4.35375 23.9524C4.35375 23.7 4.16446 23.5107 3.91208 23.5107Z" fill="#077DD3"/>
<path d="M0.441683 20.6079H1.07266C1.32505 20.6079 1.51435 20.4187 1.51435 20.1663C1.51435 19.9139 1.32505 19.7246 1.07266 19.7246H0.441683C0.189293 19.7246 0 19.9139 0 20.1663C0 20.4187 0.189293 20.6079 0.441683 20.6079Z" fill="#077DD3"/>
<path d="M0.441683 22.501H2.3346C2.58703 22.501 2.77632 22.3117 2.77632 22.0593C2.77632 21.807 2.58703 21.6177 2.3346 21.6177H0.441683C0.189293 21.6177 0 21.807 0 22.0593C0 22.3117 0.189293 22.501 0.441683 22.501Z" fill="#077DD3"/>
</svg>
