<svg width="25" height="25" viewBox="0 0 25 25" fill="none" xmlns="http://www.w3.org/2000/svg">
<path d="M22.9425 14.6748H20.701V12.6667C20.701 11.756 19.9771 11.0322 19.0665 11.0322H14.6534C13.7427 11.0322 13.0189 11.756 13.0189 12.6667V14.6748H10.5204C9.77322 14.6748 9.16614 15.2819 9.16614 16.0291V17.0098C9.16614 17.0331 9.16614 17.0331 9.16614 17.0565C9.16614 17.0798 9.16614 17.0798 9.16614 17.1032V22.2168C9.16614 22.2402 9.16614 22.2402 9.16614 22.2635C9.16614 22.2868 9.16614 22.2868 9.16614 22.3102V23.2909C9.16614 24.0381 9.77322 24.6452 10.5204 24.6452H22.9425C23.6898 24.6452 24.2968 24.0381 24.2968 23.2909V16.0524C24.3202 15.2819 23.7131 14.6748 22.9425 14.6748ZM14.63 11.7094H19.0898C19.6269 11.7094 20.0472 12.1297 20.0472 12.6667V14.6748H19.1599V12.9469C19.1599 12.7601 19.0198 12.62 18.833 12.62H14.9102C14.7234 12.62 14.5833 12.7601 14.5833 12.9469V14.6748H13.696V12.6667H13.6727C13.6727 12.1297 14.093 11.7094 14.63 11.7094ZM18.5061 13.2738V14.6748H15.2371V13.2738H18.5061ZM10.5204 15.3286H11.2443V16.7296H9.81995V16.0291C9.81995 15.6321 10.1468 15.3286 10.5204 15.3286ZM9.81995 23.2675V22.567H11.2443V23.9447H10.5204C10.1468 23.968 9.81995 23.6645 9.81995 23.2675ZM21.5649 22.2168V23.9447H11.8981V22.2402C11.8981 22.0533 11.758 21.9132 11.5712 21.9132H9.81995V17.3834H11.5712C11.758 17.3834 11.8981 17.2433 11.8981 17.0565V15.3286H21.5649V17.0565C21.5649 17.2433 21.705 17.3834 21.8918 17.3834H23.6197V21.8899H21.8918C21.705 21.8899 21.5649 22.03 21.5649 22.2168ZM23.643 23.2675C23.643 23.6645 23.3395 23.968 22.9425 23.968H22.242V22.567H23.643V23.2675ZM23.643 16.7296H22.242V15.3286H22.9425C23.3395 15.3286 23.643 15.6321 23.643 16.0291V16.7296Z" fill="#077DD3"/>
<path d="M16.5914 18.6905C16.5447 18.5037 16.3813 18.3869 16.1945 18.4336L12.9956 19.1108C12.9022 19.1341 12.8321 19.1808 12.7854 19.2509C12.7387 19.3209 12.7154 19.4143 12.7387 19.5077L13.1123 21.2123C13.1357 21.3757 13.2758 21.4691 13.4392 21.4691C13.4626 21.4691 13.4859 21.4691 13.5093 21.4691L16.7082 20.792C16.8016 20.7686 16.8716 20.7219 16.9183 20.6519C16.965 20.5818 16.9884 20.4884 16.965 20.395L16.5914 18.6905ZM13.6961 20.7453L13.4625 19.6945L16.0077 19.1575L16.2412 20.2082L13.6961 20.7453Z" fill="#00409A"/>
<path d="M20.7708 19.3678C20.6773 18.9475 20.4439 18.5972 20.0936 18.3637L20.0236 18.317C19.6733 18.0835 19.2297 18.0135 18.8094 18.0835C18.3891 18.1769 18.0388 18.4104 17.8287 18.7607C17.5952 19.1109 17.5018 19.5312 17.5952 19.9515C17.6886 20.3718 17.9221 20.7454 18.2723 20.9556L18.3424 21.0023C18.5992 21.189 18.9028 21.2825 19.2063 21.2825C19.2997 21.2825 19.4165 21.2825 19.5099 21.2591C19.9302 21.1657 20.2804 20.9322 20.5139 20.5586C20.7708 20.2083 20.8408 19.788 20.7708 19.3678ZM19.9769 20.185C19.8368 20.3952 19.6266 20.5353 19.3931 20.582C19.1596 20.6286 18.9261 20.582 18.716 20.4419L18.6226 20.3952C18.4124 20.2784 18.2723 20.0449 18.2256 19.8114C18.1789 19.5779 18.2256 19.3211 18.3657 19.1109C18.5058 18.9008 18.6926 18.7607 18.9261 18.714C18.9962 18.6906 19.0662 18.6906 19.1129 18.6906C19.2997 18.6906 19.4632 18.7373 19.6266 18.8307L19.6967 18.8774C20.1403 19.2043 20.2571 19.788 19.9769 20.185Z" fill="#00409A"/>
<path d="M9.86634 5.17135H11.8978C12.178 5.17135 12.4348 5.28812 12.645 5.47491C12.9719 5.8018 13.3922 5.96526 13.8592 5.96526H15.7505C15.9373 5.96526 16.0774 5.82516 16.0774 5.63837C16.0774 5.45155 15.9373 5.31145 15.7505 5.31145H13.8592C13.579 5.31145 13.3221 5.19471 13.112 5.00793C12.7851 4.681 12.3648 4.51758 11.8978 4.51758H9.86634C8.74554 4.51758 7.8349 5.42822 7.8349 6.54902V7.73986C7.8349 8.83729 8.72218 9.72457 9.81965 9.74793L10.6602 9.7713C11.1973 9.7713 11.6176 10.2149 11.6176 10.7286V12.4098C11.6176 12.5966 11.7577 12.7367 11.9445 12.7367C12.1313 12.7367 12.2714 12.5966 12.2714 12.4098V10.7286C12.2714 9.84135 11.5475 9.09413 10.6602 9.09413L9.81965 9.0708C9.09579 9.04744 8.48871 8.44035 8.48871 7.7165V6.52565C8.48871 5.8018 9.11915 5.17135 9.86634 5.17135Z" fill="#00409A"/>
<path d="M8.16187 18.3406C7.43805 18.2472 6.71419 18.0604 5.967 17.7335C2.53458 16.2859 0.503127 12.8534 0.666577 9.32759H1.48382C2.09092 9.32759 2.698 9.53774 3.16502 9.93468C4.21577 10.822 4.40255 12.3631 3.60865 13.4839L3.21171 14.0443C3.09497 14.1844 3.14166 14.3945 3.28176 14.5113C3.32845 14.5579 3.3985 14.5813 3.46855 14.5813C3.56196 14.5813 3.6787 14.5346 3.74874 14.4412L4.14572 13.8808C5.12641 12.5032 4.8929 10.5418 3.58532 9.44433C3.00156 8.95398 2.23102 8.67378 1.46047 8.67378H0.689925C0.783325 7.87991 0.993474 7.10937 1.32037 6.33882C2.23102 4.19061 3.91221 2.53278 6.06038 1.66884C7.71824 0.991689 9.49281 0.85159 11.1974 1.22519V1.43534C11.1974 1.62214 11.0573 1.78559 10.8471 1.78559C10.2867 1.78559 9.84306 2.22922 9.84306 2.78962V3.06982C9.84306 3.63022 10.2867 4.07387 10.8471 4.07387H11.0106C11.2674 4.07387 11.5242 3.98046 11.7111 3.79368L12.5517 2.95308C12.6217 2.90639 12.7385 2.90639 12.8319 2.99977L14.0928 4.26066C14.1628 4.33071 14.2329 4.35407 14.3262 4.35407C14.4196 4.35407 14.4897 4.33071 14.5597 4.26066C14.6998 4.12056 14.6998 3.91041 14.5597 3.79368L13.2988 2.53278C12.972 2.2059 12.4816 2.18254 12.1314 2.46273C12.108 2.46273 12.108 2.4861 12.0846 2.4861L11.2207 3.35002C11.1507 3.42007 11.0806 3.44343 10.9872 3.44343H10.8238C10.637 3.44343 10.4735 3.27997 10.4735 3.09318V2.81298C10.4735 2.62619 10.6136 2.46273 10.8238 2.46273C11.3841 2.46273 11.8278 2.01908 11.8278 1.45869V1.41199C12.108 1.50539 12.3882 1.59879 12.6684 1.71554C16.1008 3.11654 18.2257 6.52561 18.0155 10.1682C18.0155 10.355 18.1556 10.4951 18.3191 10.5184C18.5059 10.5184 18.646 10.3783 18.6693 10.2149C18.8795 6.2921 16.5912 2.62619 12.972 1.10844C10.6837 0.127747 8.13854 0.104396 5.82691 1.03839C3.51527 1.97238 1.69398 3.77031 0.736627 6.08195C-1.27146 10.8453 0.970123 16.3326 5.71013 18.3406C6.5274 18.6909 7.29795 18.901 8.09182 18.9944C8.11518 18.9944 8.11518 18.9944 8.13854 18.9944C8.30197 18.9944 8.44207 18.8777 8.46543 18.7142C8.48879 18.5274 8.34869 18.364 8.16187 18.3406Z" fill="#00409A"/>
</svg>
